<svg xmlns="http://www.w3.org/2000/svg" width="135" height="17" fill="none"><path fill="#fff" d="M4.807 9.152a32.855 32.855 0 0 1-.721-1.124l-.601-1.003-.1.07v9.664H0V.241h3.144l5.198 7.657.67 1.134c.254.448.455.783.602 1.003l.07-.07V.241h3.434v16.518h-3.104L4.807 9.152Zm25.936.532a7.56 7.56 0 0 1-1.001 3.924 6.545 6.545 0 0 1-2.654 2.529 8.386 8.386 0 0 1-7.43 0 6.544 6.544 0 0 1-2.634-2.529 7.558 7.558 0 0 1-1.001-3.924V7.326a7.558 7.558 0 0 1 1.001-3.924A6.544 6.544 0 0 1 19.668.863a8.387 8.387 0 0 1 7.43 0 6.545 6.545 0 0 1 2.654 2.529 7.56 7.56 0 0 1 1.001 3.924v2.368h-.01Zm-3.895-2.89a3.922 3.922 0 0 0-1.002-2.83 3.315 3.315 0 0 0-2.503-1.004 3.308 3.308 0 0 0-2.504 1.004 3.916 3.916 0 0 0-1.001 2.83v3.422a3.922 3.922 0 0 0 1.001 2.83 3.316 3.316 0 0 0 2.504 1.004 3.309 3.309 0 0 0 2.503-1.004 3.916 3.916 0 0 0 1.002-2.83V6.794ZM33.628.24h7.59v3.01h-1.923V13.8h1.923v3.01h-7.59V13.8h1.942V3.2h-1.943V.191v.05Zm14.44 9.975a3.863 3.863 0 0 0 1.001 2.83 3.365 3.365 0 0 0 2.504 1.004 3.189 3.189 0 0 0 2.503-.934c.609-.82.9-1.832.821-2.85h3.385a7.378 7.378 0 0 1-.851 3.653 5.653 5.653 0 0 1-2.353 2.298 7.127 7.127 0 0 1-3.365.783h-.38a7.997 7.997 0 0 1-3.706-.843 6.154 6.154 0 0 1-2.564-2.489 7.952 7.952 0 0 1-.94-4.014V7.326a7.861 7.861 0 0 1 .94-3.934A6.316 6.316 0 0 1 47.627.863 7.548 7.548 0 0 1 51.242 0h.33a7.497 7.497 0 0 1 3.425.763 5.562 5.562 0 0 1 2.374 2.248 7.499 7.499 0 0 1 .861 3.743h-3.535a4.302 4.302 0 0 0-.831-2.85A3.004 3.004 0 0 0 51.472 2.9a3.319 3.319 0 0 0-2.483 1.004 3.886 3.886 0 0 0-1.002 2.83v3.422l.08.06Zm13.018 6.543V.241h11.636l-.41 3.01h-7.54v3.613h7.009v3.01h-7.01v4.015h7.62l.411 3.01H61.086v-.14Zm14.37 0V.241h3.755v13.437h6.78l.41 3.081H75.457Zm22.422-3.251h-6.53l-1.151 3.251h-3.575L92.63.241h4.427l6.008 16.518H99.14l-1.262-3.251Zm-5.548-2.82h4.566a339.815 339.815 0 0 0-2.183-6.473h-.12l-2.263 6.473Zm17.234-1.546a26.787 26.787 0 0 1-.721-1.144l-.601-1.003-.1.07v9.694h-3.385V.241h3.145l5.257 7.657.691 1.134c.254.448.454.783.601 1.003l.07-.07V.241h3.385v16.518h-3.144l-5.198-7.617ZM127.59.231a7.936 7.936 0 0 1 3.715.863 6.55 6.55 0 0 1 2.654 2.529 7.564 7.564 0 0 1 1.001 3.924v1.896a7.564 7.564 0 0 1-1.001 3.924 6.55 6.55 0 0 1-2.654 2.53 7.937 7.937 0 0 1-3.715.862h-6.249V.241h6.249V.23Zm-2.524 13.558h2.524a3.309 3.309 0 0 0 2.503-1.004 3.923 3.923 0 0 0 1.002-2.83v-2.93a3.923 3.923 0 0 0-1.002-2.83 3.317 3.317 0 0 0-2.503-1.004h-2.524V13.8v-.01Z"/></svg>